<svg xmlns="http://www.w3.org/2000/svg" viewBox="0 0 194.57 41.16"><defs><style>.cls-1{fill:#fff;}</style></defs><g id="Capa_2" data-name="Capa 2"><g id="Capa_1-2" data-name="Capa 1"><path class="cls-1" d="M61.89,3.71a8.55,8.55,0,0,1,6.16,2.17A8,8,0,0,1,70.32,12v7.14A8.13,8.13,0,0,1,68,25.26a8.66,8.66,0,0,1-6.22,2.24H54V3.71ZM60,9V22.23h1.7c1.81,0,2.71-1,2.71-3.06V12c0-2-.9-3.06-2.71-3.06Z"/><path class="cls-1" d="M73.55,3.71h6.12V27.5H73.55Z"/><path class="cls-1" d="M91.13,3.71a8.54,8.54,0,0,1,6.15,2.17A8,8,0,0,1,99.56,12v7.14a8.1,8.1,0,0,1-2.35,6.15A8.63,8.63,0,0,1,91,27.5H83.24V3.71ZM89.19,9V22.23h1.7c1.81,0,2.72-1,2.72-3.06V12c0-2-.91-3.06-2.72-3.06Z"/><path class="cls-1" d="M112.1,15.13l6.5,12.37H112l-3.27-6.86-3.33,6.86H99.22l6.49-12L99.56,3.71h6.56L109,10l3-6.25h6.22Z"/><path class="cls-1" d="M130.32,18h-4.41V27.5h-6V3.71h6v8.83h4.41V3.71h6V27.5h-6Z"/><path class="cls-1" d="M157.69,27.5H151.5l-1.09-4.25H144.7l-1,4.25H137.8l7.14-23.79h5.61ZM147.56,11.8l-1.77,7h3.54Z"/><path class="cls-1" d="M158.54,27.5V23.08L166.87,8.8h-7.65V3.71h14.62V8.12L165.51,22.4h8.33v5.1Z"/><path class="cls-1" d="M194.57,27.5h-6.18l-1.09-4.25h-5.71l-1.06,4.25h-5.84l7.14-23.79h5.6ZM184.44,11.8l-1.77,7h3.54Z"/><path class="cls-1" d="M62.13,38.76v-7h5.3v1.65H64v1h2.9V36H64v1.15h3.5v1.65Z"/><path class="cls-1" d="M67.93,31.76h2.15l1.55,4.52,1.55-4.52h2l-2.7,7h-1.9Z"/><path class="cls-1" d="M75.93,38.76v-7h5.3v1.65h-3.4v1h2.9V36h-2.9v1.15h3.5v1.65Z"/><path class="cls-1" d="M84.28,34.61v4.15H82.43v-7h1.95l2.7,4v-4h1.85v7H87.08Z"/><path class="cls-1" d="M93.53,33.41v5.35h-1.9V33.41h-1.9V31.76h5.7v1.65Z"/><path class="cls-1" d="M96.81,32.72a3.86,3.86,0,0,1,5.28,0,3.43,3.43,0,0,1,1,2.54,3.48,3.48,0,0,1-1.07,2.57,3.64,3.64,0,0,1-2.66,1.06,3.61,3.61,0,0,1-2.62-1,3.61,3.61,0,0,1,0-5.12Zm1.33,3.86a1.83,1.83,0,0,0,2.58,0,1.82,1.82,0,0,0,.51-1.32,1.85,1.85,0,0,0-.51-1.32,1.83,1.83,0,0,0-2.58,0,1.85,1.85,0,0,0-.51,1.32A1.82,1.82,0,0,0,98.14,36.58Z"/><path class="cls-1" d="M106.2,34a5.14,5.14,0,0,0,.89.46c1.29.56,1.94,1.3,1.94,2.21a1.94,1.94,0,0,1-.73,1.55,2.81,2.81,0,0,1-1.9.63,4,4,0,0,1-1-.12,3.16,3.16,0,0,1-.79-.27c-.2-.11-.39-.21-.55-.32a3.71,3.71,0,0,1-.35-.27l-.11-.12,1.1-1.2.25.22a4.27,4.27,0,0,0,.61.34,2.17,2.17,0,0,0,.89.21.71.71,0,0,0,.43-.12.37.37,0,0,0,.17-.32.62.62,0,0,0-.3-.48,6.33,6.33,0,0,0-1.16-.6A2.23,2.23,0,0,1,104,33.74a1.88,1.88,0,0,1,.7-1.49,2.77,2.77,0,0,1,1.83-.59,3.58,3.58,0,0,1,1.31.24,2.94,2.94,0,0,1,.89.48l.27.23-1.1,1.2-.18-.17a2.44,2.44,0,0,0-.47-.28,1.6,1.6,0,0,0-.7-.17.74.74,0,0,0-.44.12.34.34,0,0,0-.16.28A.55.55,0,0,0,106.2,34Z"/><path class="cls-1" d="M113,35.73a3.12,3.12,0,0,1,1-.94,2.33,2.33,0,0,1-.61-1.43,1.54,1.54,0,0,1,.58-1.2,2.33,2.33,0,0,1,1.55-.5,2.2,2.2,0,0,1,1.53.5,1.57,1.57,0,0,1,.54,1.18,2.14,2.14,0,0,1-1.24,1.78l.66.71.93-1.07h1.8L118,36.89l1.75,1.87h-2L117,38a3.28,3.28,0,0,1-1,.69,3,3,0,0,1-1.13.19,2.4,2.4,0,0,1-1.6-.59,1.84,1.84,0,0,1-.68-1.44A2,2,0,0,1,113,35.73Zm3.07,1.2-1.11-1.16a1.13,1.13,0,0,0-.58.86.73.73,0,0,0,.22.53.83.83,0,0,0,.56.2A1.31,1.31,0,0,0,116,36.93Zm-.55-2.75c.41-.2.61-.44.61-.72a.45.45,0,0,0-.14-.35.5.5,0,0,0-.39-.15.51.51,0,0,0-.37.14.44.44,0,0,0-.15.32A1.35,1.35,0,0,0,115.49,34.18Z"/><path class="cls-1" d="M126.75,31.76a2.5,2.5,0,0,1,1.65.51,1.61,1.61,0,0,1,.62,1.31,1.69,1.69,0,0,1-.91,1.53,1.9,1.9,0,0,1,.89.67,1.7,1.7,0,0,1,.32,1,1.76,1.76,0,0,1-.66,1.4,2.62,2.62,0,0,1-1.72.56h-3.47v-7Zm-.43,2.75a.87.87,0,0,0,.59-.18.61.61,0,0,0,.21-.47.59.59,0,0,0-.21-.46.82.82,0,0,0-.59-.19h-.95v1.3Zm-.95,1.35v1.45h1.2a.87.87,0,0,0,.63-.21.67.67,0,0,0,.22-.52.64.64,0,0,0-.22-.51.87.87,0,0,0-.63-.21Z"/><path class="cls-1" d="M137,38.76h-2.1l-.41-1.2H132l-.41,1.2h-2l2.75-7h1.9ZM133.22,34l-.73,2.11h1.45Z"/><path class="cls-1" d="M139.52,34.61v4.15h-1.85v-7h2l2.7,4v-4h1.85v7h-1.85Z"/><path class="cls-1" d="M146.35,32.72a3.84,3.84,0,0,1,5.27,0,3.4,3.4,0,0,1,1,2.54,3.61,3.61,0,0,1-.42,1.71,3.69,3.69,0,0,1-1.17,1.28L152.32,40h-2.15l-.77-1.13a3.44,3.44,0,0,1-.46,0,3.59,3.59,0,0,1-2.62-1,3.61,3.61,0,0,1,0-5.12Zm1.33,3.86a1.83,1.83,0,0,0,2.58,0,1.82,1.82,0,0,0,.51-1.32,1.85,1.85,0,0,0-.51-1.32,1.83,1.83,0,0,0-2.58,0,1.85,1.85,0,0,0-.51,1.32A1.82,1.82,0,0,0,147.68,36.58Z"/><path class="cls-1" d="M159.87,31.76v4.07A2.9,2.9,0,0,1,159,38a3.13,3.13,0,0,1-2.26.83,3.09,3.09,0,0,1-2.23-.8,2.85,2.85,0,0,1-.84-2.17V31.76h1.93v4.05a1.32,1.32,0,0,0,.33.95,1.12,1.12,0,0,0,.87.35,1.16,1.16,0,0,0,.88-.35,1.36,1.36,0,0,0,.32-.95V31.76Z"/><path class="cls-1" d="M161.17,38.76v-7h5.3v1.65h-3.4v1H166V36h-2.9v1.15h3.5v1.65Z"/><path class="cls-1" d="M170.87,33.41v5.35H169V33.41h-1.9V31.76h5.7v1.65Z"/><path class="cls-1" d="M173.57,38.76v-7h5.3v1.65h-3.4v1h2.9V36h-2.9v1.15H179v1.65Z"/><path class="cls-1" d="M182,34a5.14,5.14,0,0,0,.89.46c1.29.56,1.94,1.3,1.94,2.21a2,2,0,0,1-.73,1.55,2.83,2.83,0,0,1-1.9.63,3.91,3.91,0,0,1-1-.12,3.16,3.16,0,0,1-.79-.27c-.2-.11-.39-.21-.55-.32a3.71,3.71,0,0,1-.35-.27l-.11-.12,1.1-1.2.25.22a4.27,4.27,0,0,0,.61.34,2.17,2.17,0,0,0,.89.21.71.71,0,0,0,.43-.12.4.4,0,0,0,.17-.32.62.62,0,0,0-.3-.48,6.33,6.33,0,0,0-1.16-.6,2.23,2.23,0,0,1-1.59-2.07,1.88,1.88,0,0,1,.7-1.49,2.77,2.77,0,0,1,1.83-.59,3.58,3.58,0,0,1,1.31.24,3.07,3.07,0,0,1,.89.48l.27.23-1.1,1.2-.18-.17a2.82,2.82,0,0,0-.47-.28,1.6,1.6,0,0,0-.7-.17.74.74,0,0,0-.44.12.32.32,0,0,0-.16.28A.55.55,0,0,0,182,34Z"/><path class="cls-1" d="M49.39,26.83l-.75-2.32c-1.42-4.45-3.85-6.16-5.76-6.81a6.6,6.6,0,0,0,1.2-5.93,6.48,6.48,0,0,0-2.16-3.48,4.82,4.82,0,0,0-1.93-1A4.78,4.78,0,0,0,39,5.4a6.35,6.35,0,0,0-3.48-2.17,7.1,7.1,0,0,0-2.71-.16A7.18,7.18,0,0,0,30.57,1a6.51,6.51,0,0,0-4-.93,4.83,4.83,0,0,0-2,.68A4.78,4.78,0,0,0,22.48,0a6.49,6.49,0,0,0-4,.93,7.07,7.07,0,0,0-2.26,2.11,7.16,7.16,0,0,0-2.72.16A6.29,6.29,0,0,0,10.05,5.4a4.66,4.66,0,0,0-1,1.92,4.76,4.76,0,0,0-1.93,1A6.5,6.5,0,0,0,5,11.77a6.64,6.64,0,0,0,1.28,6c-1.86.72-4.13,2.47-5.49,6.71L0,26.85l1.78-1.66a.75.75,0,0,1,.59-.06c.71.14,2.25,1,4.64,4.9a10,10,0,0,0,4.52,4,7.8,7.8,0,0,0,3.16.72c.14,0,.27,0,.41,0a6.94,6.94,0,0,0,6.75,6.45,4.35,4.35,0,0,0,.63,0,4.53,4.53,0,0,0,2.05-.68,4.57,4.57,0,0,0,2,.68,6.5,6.5,0,0,0,4-.92A6.63,6.63,0,0,0,34,34.69a6.61,6.61,0,0,0,.76.05A7.8,7.8,0,0,0,37.88,34a10,10,0,0,0,4.52-4c2.39-3.94,3.93-4.76,4.64-4.9a.83.83,0,0,1,.57,0h0ZM35.24,4.46A5.1,5.1,0,0,1,38,6.19a3.2,3.2,0,0,1,.77,1.74l0,.54.54,0a3.28,3.28,0,0,1,1.74.77,5.13,5.13,0,0,1,1.73,2.79,5.41,5.41,0,0,1-1.37,5.31,5.75,5.75,0,0,0-1,0c-.19,0-.39,0-.58,0a14.6,14.6,0,0,0-3.93-.75,11.11,11.11,0,0,0-.23-1.88A5.69,5.69,0,0,0,35.38,9a5.51,5.51,0,0,0-2.66-2.29,4,4,0,0,0-1.78-.3,3.32,3.32,0,0,0-.74-.86A5.38,5.38,0,0,1,35.24,4.46ZM38,18.6l-.22.22-.25.25-.24.28a2.37,2.37,0,0,0-.25.29l-.27.35-.24.32-.28.44L36,21.1c-.1.17-.2.36-.3.55s-.13.24-.19.37-.21.46-.31.69-.11.23-.16.35c-.15.38-.29.77-.43,1.19a10.06,10.06,0,0,1-.59,1.42l-.21.37a9.23,9.23,0,0,1-.55.87l-.27.35a10.33,10.33,0,0,1-.7.77c-.07.07-.14.15-.21.21a10.24,10.24,0,0,1-1,.77c-.11.08-.23.15-.35.22a8.31,8.31,0,0,1-.76.44l-.34.17a11.56,11.56,0,0,1-3.82,1h0c.08-.15.17-.3.25-.47l.05-.11.2-.42.07-.18c.06-.13.12-.27.17-.41s.05-.13.07-.19.13-.37.18-.56a.25.25,0,0,0,0-.07c.06-.21.11-.43.16-.65l0-.19.06-.47c0-.08,0-.16,0-.23v-.48a1.41,1.41,0,0,0,0-.2A4.22,4.22,0,0,0,26.88,25c0-.09-.1-.16-.14-.24s-.14-.27-.22-.39a4.17,4.17,0,0,0-.36-.47c-.06-.06-.1-.14-.16-.2l.61-.14.55-.11,0-.56a3.61,3.61,0,0,1,1-2.73c.76-.58,2-.59,3.6,0l.75.26.09-.79a1.92,1.92,0,0,1,.89-1.23c.74-.47,2.18-.84,5-.14l-.17.15ZM25.21,29.36h0c-.11.24-.22.47-.33.68l-.12.2a3.69,3.69,0,0,1-.19.35c0,.08-.09.14-.12.2l-.08.12a12.06,12.06,0,0,1-4.06-.83L20,30a11.12,11.12,0,0,1-1.09-.55l-.31-.2a8.72,8.72,0,0,1-.87-.63l-.26-.21a9,9,0,0,1-1-1l-.21-.27a10.46,10.46,0,0,1-.66-1c-.07-.13-.14-.24-.2-.37a8.79,8.79,0,0,1-.64-1.5c-.14-.42-.28-.81-.43-1.18-.06-.15-.12-.27-.18-.41s-.18-.44-.28-.63-.15-.29-.23-.43-.17-.34-.26-.49-.17-.26-.25-.39l-.25-.4c-.09-.13-.18-.24-.27-.35l-.24-.32c-.09-.12-.18-.22-.28-.33s-.14-.17-.21-.24l-.28-.28-.19-.19a2.76,2.76,0,0,0-.27-.23L11,18.24c2.74-.69,4.17-.34,4.91.12a1.92,1.92,0,0,1,.92,1.25l.09.79.75-.26c1.62-.55,2.84-.54,3.6,0a3.57,3.57,0,0,1,1,2.73l0,.56.54.11a5.29,5.29,0,0,1,1.78.66l.17.11a2.67,2.67,0,0,1,.5.44l.06.05a2.3,2.3,0,0,1,.35.58,1.42,1.42,0,0,1,.07.22c0,.12.07.25.1.37a3.53,3.53,0,0,1,.05.56,2.43,2.43,0,0,1,0,.27,4.81,4.81,0,0,1-.08.65l0,.2a6.39,6.39,0,0,1-.22.78.64.64,0,0,0,0,.07C25.43,28.82,25.32,29.1,25.21,29.36ZM14.77,9.69a4.2,4.2,0,0,1,2-1.77,2.55,2.55,0,0,1,1.53-.17l.53.12.2-.51a2.5,2.5,0,0,1,1-1.15,4.15,4.15,0,0,1,2.61-.67,4.48,4.48,0,0,1,4,2.68,4.5,4.5,0,0,1,.14.58c-.2,0-.4,0-.6,0a4.16,4.16,0,0,0-1.72.56,4.11,4.11,0,0,0-1.71-.56,5.53,5.53,0,0,0-3.42.8,5.9,5.9,0,0,0-2.32,2.52,4.37,4.37,0,0,1-.18-.79l-.1-.78-.74.27a4.17,4.17,0,0,0-2,2A4.53,4.53,0,0,1,14.77,9.69ZM29,6.21a2.53,2.53,0,0,1,1,1.15l.21.51.53-.12a2.56,2.56,0,0,1,1.53.17,4.29,4.29,0,0,1,2,1.77A4.56,4.56,0,0,1,35,12.78a4.12,4.12,0,0,0-2-1.95l-.74-.27-.1.78a5.42,5.42,0,0,1-.18.79,5.92,5.92,0,0,0-2.33-2.52A5.59,5.59,0,0,0,28.14,9a4.44,4.44,0,0,0-.28-1.28,6.21,6.21,0,0,0-1.64-2.13l.14,0A4.11,4.11,0,0,1,29,6.21ZM24.72,22.86a7,7,0,0,0-1.17-.41c0-.14,0-.3-.05-.47.1-.53,1-4.39,6.71-6.09a5.21,5.21,0,0,0,3-3.41,6,6,0,0,1,1.43,4.18,4.82,4.82,0,0,0-1.87.65,3.32,3.32,0,0,0-1.24,1.44,4.61,4.61,0,0,0-4.17.42,4.47,4.47,0,0,0-1.51,3.28A6.92,6.92,0,0,0,24.72,22.86ZM29,10.69a4.49,4.49,0,0,1,2.18,3,4,4,0,0,1-1.37,1c-.42.12-.82.26-1.19.4a4.52,4.52,0,0,0-8.21,0c-.37-.14-.73-.29-1.13-.41a3.77,3.77,0,0,1-1.41-1.06,4.49,4.49,0,0,1,2.18-3,4.29,4.29,0,0,1,2.62-.62,2.58,2.58,0,0,1,1.44.56l.41.35.41-.35a2.61,2.61,0,0,1,1.44-.56A4.25,4.25,0,0,1,29,10.69Zm-4.5,7a11.16,11.16,0,0,0-2.93-2.09,3.25,3.25,0,0,1,5.89,0A10.94,10.94,0,0,0,24.51,17.71ZM18.89,15.9a10.88,10.88,0,0,1,4.8,2.78,7.38,7.38,0,0,0-.85,1.38,3.35,3.35,0,0,0-.8-.89,4.58,4.58,0,0,0-4.16-.42,3.42,3.42,0,0,0-1.25-1.44,4.93,4.93,0,0,0-2.21-.69,6,6,0,0,1,1.43-4.14A5.18,5.18,0,0,0,18.89,15.9ZM19.15,2a5.22,5.22,0,0,1,3.2-.75A3.19,3.19,0,0,1,24.12,2l.41.35L24.94,2a3.19,3.19,0,0,1,1.78-.69A5.19,5.19,0,0,1,29.91,2a6.33,6.33,0,0,1,1.58,1.34,7,7,0,0,0-2.37,1.46,5.5,5.5,0,0,0-2.83-.57,6.4,6.4,0,0,0-1.74.36,6.31,6.31,0,0,0-1.77-.36,5.64,5.64,0,0,0-2.84.57,7.07,7.07,0,0,0-2.36-1.46A6.28,6.28,0,0,1,19.15,2Zm-12.93,10A5.12,5.12,0,0,1,7.94,9.28a3.31,3.31,0,0,1,1.74-.77l.54,0,0-.54A3.18,3.18,0,0,1,11,6.19a5.13,5.13,0,0,1,2.79-1.73,5.4,5.4,0,0,1,5.05,1.12,3.57,3.57,0,0,0-.75.86,3.92,3.92,0,0,0-1.77.3A5.47,5.47,0,0,0,13.69,9a5.66,5.66,0,0,0-.31,5.69,11.1,11.1,0,0,0-.23,1.89,15.76,15.76,0,0,0-3.59.73c-.19,0-.39,0-.58,0a5.85,5.85,0,0,0-1.35.09A5.39,5.39,0,0,1,6.22,12.07ZM12,32.86A8.64,8.64,0,0,1,8.1,29.37c-2.08-3.43-4-5.28-5.63-5.51H2.35c2-4.89,5.19-5.3,6.57-5.25h.33s2.73,1.11,4.31,6A12,12,0,0,0,14,25.79c.05.12.11.23.16.34s.25.49.39.72a3.21,3.21,0,0,0,.19.31q.23.36.48.69l.15.19a10.42,10.42,0,0,0,3.93,3C17.22,33.46,14.77,34.07,12,32.86Zm17.87,6.25a5.19,5.19,0,0,1-3.19.75,3.26,3.26,0,0,1-1.78-.68l-.41-.36-.41.36a3.26,3.26,0,0,1-1.77.68,5.09,5.09,0,0,1-3.2-.75,5.39,5.39,0,0,1-2.78-4.61,8.17,8.17,0,0,0,4.17-3,12.71,12.71,0,0,0,3,.6l0,.06H25a13.38,13.38,0,0,0,3.83-.65A8.47,8.47,0,0,0,32.7,34.4,5.38,5.38,0,0,1,29.91,39.11ZM47,23.86c-1.66.23-3.55,2.08-5.63,5.51a8.71,8.71,0,0,1-4,3.49c-2.73,1.21-5.18.6-7.27-1.81a10.5,10.5,0,0,0,3.93-3l.16-.21c.16-.22.32-.44.47-.68a3.21,3.21,0,0,0,.19-.31q.21-.34.39-.72c0-.11.11-.22.16-.34a12,12,0,0,0,.45-1.15c1.56-4.85,4.29-6,4.31-6h.33c1.36,0,4.61.36,6.57,5.25Z"/></g></g></svg>